Coordinates
version=1
nRows=20
nColumns=38
inDegrees=no

Units are S.I. units (second, meters, Newtons, ...)
If the header above contains a line with 'inDegrees', this indicates whether rotational values are in degrees (yes) or radians (no).

endheader
time	pelvis_tilt	pelvis_list	pelvis_rotation	pelvis_tx	pelvis_ty	pelvis_tz	hip_flexion_r	hip_adduction_r	hip_rotation_r	knee_angle_r	ankle_angle_r	subtalar_angle_r	mtp_angle_r	hip_flexion_l	hip_adduction_l	hip_rotation_l	knee_angle_l	ankle_angle_l	subtalar_angle_l	mtp_angle_l	lumbar_extension	lumbar_bending	lumbar_rotation	arm_flex_r	arm_add_r	arm_rot_r	elbow_flex_r	pro_sup_r	wrist_flex_r	wrist_dev_r	arm_flex_l	arm_add_l	arm_rot_l	elbow_flex_l	pro_sup_l	wrist_flex_l	wrist_dev_l
0	-3.0505	1.09574	1.4924	0.677417	1.59065	1.02755	0.519568	0.0854874	-0.0411067	0.196449	-0.162998	0	0	0.768546	-0.0634955	0.0207425	1.07154	-0.0911887	0	0	0.422021	0.133358	0.245556	-0.402913	-0.275509	-0.179593	0.711893	1.47052	0	0	-0.0890481	-0.0928659	-0.741798	0.231678	1.5708	0	0
0.01	-3.07583	1.06617	1.50636	0.675791	1.58041	1.02545	0.540514	0.0816826	-0.0244345	0.19809	-0.158625	0	0	0.813482	-0.0602533	0.0173799	1.03837	-0.0917587	0	0	0.466727	0.128784	0.257113	-0.421224	-0.271377	-0.18611	0.73323	1.48052	0	0	-0.102078	-0.0939798	-0.739383	0.238211	1.5708	0	0
0.02	-3.0951	1.05119	1.51572	0.674388	1.56982	1.02447	0.544641	0.0783437	-0.0145702	0.197329	-0.154782	0	0	0.840391	-0.0573382	0.0155701	1.00019	-0.0917449	0	0	0.488823	0.124765	0.268621	-0.433659	-0.268984	-0.192009	0.754327	1.49087	0	0	-0.10779	-0.0943363	-0.732589	0.241909	1.5708	0	0
0.03	-3.11161	1.04229	1.52296	0.673011	1.55901	1.02391	0.541534	0.0755903	-0.00780779	0.195007	-0.151232	0	0	0.85913	-0.0556218	0.0124656	0.957805	-0.0930633	0	0	0.502105	0.121015	0.27924	-0.442584	-0.26741	-0.196423	0.773498	1.50232	0	0	-0.110591	-0.0946131	-0.724633	0.243775	1.5708	0	0
0.04	-3.1267	1.03505	1.52886	0.671598	1.54807	1.02338	0.536283	0.0733785	-0.00206359	0.192032	-0.147674	0	0	0.874327	-0.0549882	0.00854216	0.910525	-0.0967243	0	0	0.513301	0.117636	0.289835	-0.450194	-0.265614	-0.200893	0.790798	1.51483	0	0	-0.112231	-0.0948537	-0.717699	0.244713	1.5708	0	0
0.05	-3.14068	1.02937	1.53388	0.670215	1.53712	1.02285	0.529123	0.0711273	0.00333536	0.188618	-0.144713	0	0	0.886074	-0.055153	0.00369139	0.859004	-0.101772	0	0	0.52183	0.114382	0.299467	-0.456194	-0.264524	-0.204212	0.807333	1.52544	0	0	-0.112987	-0.0945118	-0.713305	0.245743	1.5708	0	0
0.06	3.12968	1.02367	1.53798	0.66885	1.52617	1.02217	0.521797	0.0691933	0.00899575	0.184805	-0.141896	0	0	0.896306	-0.0559994	-0.00235486	0.803742	-0.109623	0	0	0.529933	0.111568	0.308284	-0.461362	-0.263797	-0.207521	0.823117	1.53599	0	0	-0.113074	-0.0939044	-0.710559	0.246138	1.5708	0	0
0.07	3.11915	1.01899	1.54048	0.66757	1.51527	1.02139	0.513358	0.0679086	0.0137892	0.181007	-0.139305	0	0	0.904172	-0.057652	-0.00969577	0.74544	-0.119727	0	0	0.53598	0.109492	0.315385	-0.465271	-0.263662	-0.21069	0.838495	1.5457	0	0	-0.112362	-0.092897	-0.708079	0.246033	1.5708	0	0
0.08	3.11173	1.01538	1.54052	0.666406	1.50444	1.02045	0.503831	0.0676055	0.017965	0.177403	-0.135629	0	0	0.909965	-0.0595358	-0.0121617	0.692337	-0.127741	0	0	0.539764	0.108858	0.320705	-0.468158	-0.264719	-0.213375	0.853882	1.55494	0	0	-0.111302	-0.0912034	-0.705628	0.246282	1.5708	0	0
0.09	3.10338	1.01248	1.54115	0.665098	1.49342	1.01955	0.493463	0.066702	0.021651	0.174017	-0.130588	0	0	0.912891	-0.0642937	-0.0336059	0.619216	-0.150983	0	0	0.542838	0.107334	0.32613	-0.469119	-0.265352	-0.215097	0.865851	1.56545	0	0	-0.109983	-0.0903731	-0.70283	0.245873	1.5708	0	0
0.1	3.09797	1.01069	1.53911	0.663846	1.48243	1.01848	0.481705	0.0670698	0.0255234	0.170001	-0.126004	0	0	0.914221	-0.0688626	-0.0495532	0.553229	-0.172349	0	0	0.543954	0.107287	0.330485	-0.469506	-0.267495	-0.215287	0.877705	1.5708	0	0	-0.108297	-0.0886657	-0.701803	0.246379	1.5708	0	0
0.11	3.09414	1.01036	1.53547	0.662611	1.47139	1.01736	0.468478	0.0681285	0.0287813	0.166227	-0.122061	0	0	0.91304	-0.0740497	-0.0685701	0.485625	-0.195706	0	0	0.542786	0.108006	0.334137	-0.468888	-0.271124	-0.213542	0.888891	1.5708	0	0	-0.1062	-0.086346	-0.702369	0.247515	1.5708	0	0
0.12	3.09177	1.01199	1.53015	0.661402	1.46026	1.01624	0.453451	0.0697986	0.0309746	0.163257	-0.11833	0	0	0.908742	-0.0797889	-0.0916165	0.41673	-0.220589	0	0	0.538669	0.109532	0.337382	-0.467179	-0.275196	-0.212317	0.899211	1.5708	0	0	-0.103807	-0.0834404	-0.704435	0.2494	1.5708	0	0
0.13	3.09059	1.01529	1.52345	0.660246	1.44902	1.0151	0.436827	0.0718243	0.0324524	0.160789	-0.114342	0	0	0.901566	-0.0855028	-0.117165	0.347222	-0.245594	0	0	0.532188	0.11172	0.340547	-0.464658	-0.279492	-0.211813	0.908509	1.5708	0	0	-0.101259	-0.0800867	-0.708258	0.251907	1.5708	0	0
0.14	3.0901	1.01952	1.51598	0.659125	1.43767	1.01393	0.419441	0.0738811	0.033226	0.158909	-0.110508	0	0	0.892694	-0.0903912	-0.143902	0.278757	-0.268495	0	0	0.524506	0.114202	0.343727	-0.461569	-0.28436	-0.210175	0.916348	1.5708	0	0	-0.0987732	-0.0766139	-0.713259	0.254624	1.5708	0	0
0.15	3.09023	1.02445	1.50753	0.658021	1.42622	1.0127	0.40182	0.0760043	0.0331556	0.158411	-0.10656	0	0	0.882992	-0.0945007	-0.171614	0.213557	-0.289852	0	0	0.515807	0.117071	0.347146	-0.458112	-0.289376	-0.20878	0.923148	1.5708	0	0	-0.0960793	-0.0729609	-0.719807	0.257063	1.5708	0	0
0.16	3.09095	1.02974	1.49805	0.656945	1.4147	1.01139	0.384521	0.0781421	0.0323949	0.159464	-0.102456	0	0	0.872557	-0.0976719	-0.197939	0.15146	-0.308216	0	0	0.50614	0.120316	0.350564	-0.454168	-0.294525	-0.207893	0.929182	1.5708	0	0	-0.0934245	-0.0692638	-0.726872	0.259541	1.5708	0	0
0.17	-3.10175	1.38281	1.43354	0.658251	1.41208	1.04056	-0.00159022	0.0712324	-0.050968	0.138273	-0.105247	0	0	0.484481	-0.075584	-0.21723	0.0381965	-0.351573	0	0	-0.0498752	0.0735904	0.259757	-0.251368	-0.36546	-0.136871	0.979751	1.5708	0	0	0.0295974	-0.0184773	-0.824805	0.317408	1.5708	0	0
0.18	3.09383	1.08156	1.48293	0.654791	1.39213	1.01204	0.308604	0.0776362	0.0229903	0.163507	-0.0899058	0	0	0.808996	-0.095272	-0.23954	0.0383946	-0.330577	0	0	0.420277	0.113388	0.343641	-0.413065	-0.312286	-0.192686	0.932998	1.5708	0	0	-0.0709544	-0.0592522	-0.753914	0.264174	1.5708	0	0
0.19	3.08174	0.990832	1.47723	0.65351	1.37875	1.00253	0.394624	0.0824798	0.0413283	0.174451	-0.0891644	0	0	0.897238	-0.10051	-0.247625	0	-0.332264	0	0	0.557303	0.135336	0.366214	-0.473464	-0.298543	-0.215759	0.950661	1.5708	0	0	-0.111449	-0.0636576	-0.745301	0.278699	1.5708	0	0
